PathFileType	4	(X/Y/Z)	/Users/itak/Documents/Research/Walk-IL/dataset/trc/00210_00009.trc
DataRate	CameraRate	NumFrames	NumMarkers	Units	OrigDataRate	OrigDataStartFrame	OrigNumFrames
100.000000	100.000000	4	53	mm	100.000000	557	637
Frame#	Time	RPSI			LPSI			L3			STRN			T10			C7			CLAV			RBAK			LBAK			LSHO			LUPA			LAEL			LAOL			LWTS			LWPS			LFRA			LIFD			LHPS			LHTS			RSHO			RUPA			RAEL			RAOL			RWTS			RWPS			RFRA			RIFD			RHTS			RHPS			RBHD			LFHD			RFHD			LBHD			LHIP			RHIP			RASI			LASI			LKNE			LTHI			LANK			LTIP			LTOE			LMT5			LHEE			RKNE			RTHI			RANK			RTIP			RTOE			RMT1			RMT5			RHEE			LMT1			
		X1	Y1	Z1	X2	Y2	Z2	X3	Y3	Z3	X4	Y4	Z4	X5	Y5	Z5	X6	Y6	Z6	X7	Y7	Z7	X8	Y8	Z8	X9	Y9	Z9	X10	Y10	Z10	X11	Y11	Z11	X12	Y12	Z12	X13	Y13	Z13	X14	Y14	Z14	X15	Y15	Z15	X16	Y16	Z16	X17	Y17	Z17	X18	Y18	Z18	X19	Y19	Z19	X20	Y20	Z20	X21	Y21	Z21	X22	Y22	Z22	X23	Y23	Z23	X24	Y24	Z24	X25	Y25	Z25	X26	Y26	Z26	X27	Y27	Z27	X28	Y28	Z28	X29	Y29	Z29	X30	Y30	Z30	X31	Y31	Z31	X32	Y32	Z32	X33	Y33	Z33	X34	Y34	Z34	X35	Y35	Z35	X36	Y36	Z36	X37	Y37	Z37	X38	Y38	Z38	X39	Y39	Z39	X40	Y40	Z40	X41	Y41	Z41	X42	Y42	Z42	X43	Y43	Z43	X44	Y44	Z44	X45	Y45	Z45	X46	Y46	Z46	X47	Y47	Z47	X48	Y48	Z48	X49	Y49	Z49	X50	Y50	Z50	X51	Y51	Z51	X52	Y52	Z52	X53	Y53	Z53	

558	5.57	580.2103881835938	1036.418212890625	-209.4739990234375	584.6398315429688	1042.75634765625	-329.9314880371094	575.2243041992188	1111.387451171875	-286.1436462402344	802.3107299804688	1313.8505859375	-281.4597778320312	555.5941772460938	1238.2451171875	-277.2760620117188	598.8409423828125	1504.193969726562	-279.4929504394531	769.665771484375	1428.970458984375	-280.1939697265625	532.7208251953125	1359.900634765625	-207.7057495117188	580.6729736328125	1465.394653320312	-389.7396240234375	669.8444213867188	1472.990844726562	-446.8774719238281	647.5114135742188	1352.6435546875	-523.8406372070312	677.9102172851562	1144.232666015625	-552.9589233398438	606.5802612304688	1122.248779296875	-505.2125854492188	790.08203125	920.9869995117188	-498.0596008300781	766.595703125	902.6889038085938	-576.3341064453125	709.4852905273438	1039.76416015625	-567.1888427734375	820.8875122070312	726.2362060546875	-512.1770629882812	793.5488891601562	817.4813842773438	-574.3399658203125	834.8154296875	824.8845825195312	-520.2763671875	661.470703125	1465.087280273438	-110.7192535400391	646.3043823242188	1398.691284179688	-44.66343688964844	645.5744018554688	1116.375	-7.787365436553955	608.2372436523438	1110.2724609375	-95.84586334228516	790.471435546875	909.764404296875	-63.79425811767578	744.913818359375	892.1907348632812	4.61070442199707	677.9307250976562	1049.195556640625	2.448441505432129	818.4655151367188	715.732666015625	-70.06296539306641	837.6673583984375	790.81787109375	-53.71217346191406	790.0885620117188	787.4821166992188	1.255470514297485	632.779541015625	1661.038818359375	-227.1465759277344	828.5422973632812	1721.830078125	-325.3291015625	829.6715698242188	1720.443603515625	-225.1509399414062	674.8345336914062	1672.302734375	-360.4315795898438	693.3029174804688	983.2246704101562	-466.9906616210938	679.6432495117188	998.965576171875	-101.9413375854492	771.9441528320312	1044.77783203125	-134.6456298828125	777.9970703125	1029.64208984375	-416.0185546875	711.0247192382812	499.6080932617188	-415.418701171875	717.5643310546875	643.1192016601562	-447.9630737304688	610.2149658203125	31.41534423828125	-396.8603820800781	653.1713256835938	277.6342468261719	-417.6285095214844	825.6795654296875	34.15288543701172	-337.3394165039062	737.5906982421875	29.51628494262695	-412.3429870605469	548.8289184570312	40.83291625976562	-346.02783203125	689.0489501953125	508.6750793457031	-143.2884674072266	738.6450805664062	774.6554565429688	-102.2301864624023	571.2349853515625	33.84055328369141	-170.6659088134766	682.4153442382812	391.1971435546875	-164.7330169677734	782.3729858398438	35.41411590576172	-217.5416564941406	723.1432495117188	34.63592529296875	-258.3552551269531	679.8893432617188	31.20133209228516	-145.1988525390625	506.62744140625	35.82505416870117	-229.3094329833984	755.580322265625	31.72506141662598	-296.1703796386719	
559	5.58	580.2222290039062	1036.410400390625	-210.0320739746094	584.9412841796875	1042.660522460938	-330.439208984375	575.502685546875	1111.357299804688	-286.6390686035156	802.551025390625	1313.784057617188	-281.8453674316406	555.7654418945312	1238.246459960938	-277.8047485351562	599.1588745117188	1504.185668945312	-279.950439453125	769.9404907226562	1428.919799804688	-280.5656433105469	533.0728149414062	1359.9013671875	-208.2184295654297	581.0773315429688	1465.445068359375	-390.2062072753906	670.2962646484375	1473.005737304688	-447.3085021972656	647.8999633789062	1352.66064453125	-524.2860107421875	677.8846435546875	1144.1640625	-553.2882690429688	606.5693969726562	1122.404174804688	-505.3819274902344	788.7310180664062	920.0225830078125	-499.0079956054688	764.970947265625	902.0939331054688	-577.2803955078125	708.8438720703125	1039.5556640625	-567.6830444335938	817.778564453125	724.9448852539062	-513.6092529296875	791.1434326171875	816.6411743164062	-575.5182495117188	832.5625	823.55810546875	-521.4888305664062	661.670654296875	1465.00341796875	-111.1514358520508	646.454345703125	1398.623901367188	-45.11273956298828	645.6873779296875	1116.308715820312	-8.200099945068359	608.4575805664062	1110.107421875	-96.23633575439453	791.0077514648438	909.9243774414062	-64.06761932373047	745.4363403320312	892.25	4.283412456512451	678.1818237304688	1049.15478515625	2.095882654190063	819.389892578125	715.9641723632812	-70.3685302734375	838.3933715820312	791.0616455078125	-53.99665069580078	790.7916870117188	787.6301879882812	0.9507479071617126	633.00732421875	1660.966674804688	-227.4496154785156	828.862548828125	1721.92626953125	-325.4496765136719	829.8189086914062	1720.419677734375	-225.2160491943359	675.173583984375	1672.341796875	-360.7190856933594	693.4262084960938	983.0562744140625	-467.5130615234375	679.835205078125	999.00244140625	-102.3604431152344	772.0697021484375	1044.769775390625	-135.0245819091797	778.30078125	1029.617919921875	-416.4029846191406	711.447021484375	499.4967041015625	-415.5303344726562	717.9349365234375	643.0194702148438	-448.1817016601562	610.2264404296875	31.41916656494141	-396.8451232910156	653.45166015625	277.5193481445312	-417.6785888671875	825.6990356445312	34.14009857177734	-337.3347473144531	737.600341796875	29.51787567138672	-412.3380126953125	548.854736328125	40.85136413574219	-346.0083312988281	689.0016479492188	508.6926574707031	-143.5191802978516	738.77001953125	774.6842651367188	-102.5108184814453	571.2639770507812	33.85840606689453	-170.6534271240234	682.4158325195312	391.2371826171875	-164.8812255859375	782.372802734375	35.40569305419922	-217.5440826416016	723.1465454101562	34.63601684570312	-258.3575134277344	679.8997802734375	31.20544624328613	-145.2020111083984	506.6315612792969	35.82874298095703	-229.3189544677734	755.5884399414062	31.72502136230469	-296.1656188964844	
560	5.59	580.185546875	1036.396728515625	-210.5985412597656	585.2274169921875	1042.535278320312	-330.9434814453125	575.7634887695312	1111.324462890625	-287.1257934570312	802.770263671875	1313.709594726562	-282.2297668457031	555.8546752929688	1238.244018554688	-278.3290100097656	599.4558715820312	1504.174438476562	-280.385986328125	770.1956176757812	1428.861938476562	-280.9396057128906	533.386474609375	1359.888793945312	-208.6987609863281	581.447998046875	1465.483642578125	-390.6502990722656	670.7007446289062	1473.005493164062	-447.728515625	648.221923828125	1352.666381835938	-524.7142944335938	677.7965698242188	1144.092163085938	-553.6321411132812	606.509521484375	1122.537231445312	-505.5484313964844	787.3944702148438	919.1072387695312	-499.9696350097656	763.3505249023438	901.5423583984375	-578.2371215820312	708.1607666015625	1039.365112304688	-568.1890869140625	814.7764282226562	723.7251586914062	-515.0338134765625	788.7913208007812	815.859619140625	-576.7068481445312	830.3667602539062	822.3064575195312	-522.7276000976562	661.864013671875	1464.919555664062	-111.5800399780273	646.605224609375	1398.554931640625	-45.55312728881836	645.8021240234375	1116.24169921875	-8.585938453674316	608.72607421875	1109.937255859375	-96.56562042236328	791.502685546875	910.0493774414062	-64.31349945068359	745.931884765625	892.2955932617188	3.99780797958374	678.4266967773438	1049.114624023438	1.772412300109863	820.2343139648438	716.1494750976562	-70.61675262451172	839.0503540039062	791.2606201171875	-54.24741744995117	791.4463500976562	787.7538452148438	0.698454737663269	633.2191772460938	1660.892333984375	-227.7490386962891	829.1560668945312	1721.99951171875	-325.5692138671875	829.9675903320312	1720.393920898438	-225.3009796142578	675.4862670898438	1672.36669921875	-361.0081481933594	693.574951171875	982.8719482421875	-468.0119934082031	680.0084228515625	999.030029296875	-102.7636871337891	772.1735229492188	1044.752807617188	-135.3880004882812	778.58251953125	1029.584106445312	-416.7723083496094	711.8781127929688	499.3724060058594	-415.6397705078125	718.2352294921875	642.911865234375	-448.4532165527344	610.2339477539062	31.42028045654297	-396.8318176269531	653.7279052734375	277.4102783203125	-417.7381896972656	825.716552734375	34.13526916503906	-337.3316345214844	737.6062622070312	29.51790618896484	-412.3336791992188	548.8778686523438	40.86973571777344	-345.9908752441406	688.97021484375	508.7021179199219	-143.7522888183594	738.8763427734375	774.7037963867188	-102.7754745483398	571.2940673828125	33.87635803222656	-170.6442718505859	682.4414672851562	391.2700500488281	-165.0285491943359	782.3519897460938	35.39231109619141	-217.5548858642578	723.1506958007812	34.63581085205078	-258.3616943359375	679.9057006835938	31.21126747131348	-145.2053375244141	506.6375427246094	35.83042526245117	-229.3324127197266	755.595458984375	31.72551536560059	-296.1614379882812	
561	5.600000000000001	580.1279907226562	1036.38037109375	-211.1683959960938	585.4950561523438	1042.390991210938	-331.4463806152344	575.996826171875	1111.291015625	-287.6082153320312	802.970458984375	1313.627807617188	-282.6102294921875	555.8806762695312	1238.241088867188	-278.8512878417969	599.7335815429688	1504.16064453125	-280.8002319335938	770.431396484375	1428.796630859375	-281.31396484375	533.6445922851562	1359.865112304688	-209.1535186767578	581.7836303710938	1465.5078125	-391.073974609375	671.0556030273438	1472.990478515625	-448.1390991210938	648.47509765625	1352.660522460938	-525.1260986328125	677.6431274414062	1144.016723632812	-553.9906616210938	606.39892578125	1122.650390625	-505.719482421875	786.0799560546875	918.2517700195312	-500.9425659179688	761.7392578125	901.0366821289062	-579.1993408203125	707.4369506835938	1039.192504882812	-568.7078857421875	811.892822265625	722.5846557617188	-516.4484252929688	786.507080078125	815.1400146484375	-577.8985595703125	828.2434692382812	821.1390380859375	-523.9866943359375	662.0448608398438	1464.837524414062	-112.0021209716797	646.751953125	1398.483276367188	-45.98295211791992	645.92431640625	1116.171997070312	-8.946016311645508	609.0388793945312	1109.766235351562	-96.85254669189453	791.9579467773438	910.1364135742188	-64.53346252441406	746.395751953125	892.3255615234375	3.751720428466797	678.66259765625	1049.072875976562	1.472078680992126	820.9910278320312	716.283203125	-70.80892181396484	839.6325073242188	791.4107666015625	-54.46349716186523	792.0469970703125	787.850341796875	0.4970169067382812	633.4171752929688	1660.8203125	-228.0485382080078	829.4227294921875	1722.047729492188	-325.6882934570312	830.1218872070312	1720.3662109375	-225.4079895019531	675.7772216796875	1672.379028320312	-361.2974243164062	693.7443237304688	982.6842041015625	-468.4900207519531	680.1481323242188	999.0484008789062	-103.1613388061523	772.251708984375	1044.726806640625	-135.7371978759766	778.8389892578125	1029.54150390625	-417.127685546875	712.315185546875	499.2442626953125	-415.7554931640625	718.5079345703125	642.796142578125	-448.75	610.2399291992188	31.42149925231934	-396.8226623535156	653.992431640625	277.3093566894531	-417.8092346191406	825.7325439453125	34.13874435424805	-337.3301696777344	737.6085205078125	29.51633262634277	-412.3301391601562	548.8964233398438	40.88640213012695	-345.9762573242188	688.965087890625	508.7053833007812	-143.9844360351562	738.94921875	774.7139892578125	-103.0344390869141	571.3214111328125	33.8945198059082	-170.6415710449219	682.4942016601562	391.2953186035156	-165.1757507324219	782.31494140625	35.37629318237305	-217.5718383789062	723.1564331054688	34.63465881347656	-258.3678894042969	679.9078369140625	31.2183780670166	-145.2093811035156	506.6471862792969	35.82944107055664	-229.3484039306641	755.601318359375	31.7264347076416	-296.1576843261719	
